<?xml version="1.0" encoding="UTF-8" standalone="no"?>
<!DOCTYPE svg PUBLIC "-//W3C//DTD SVG 1.0//EN" "http://www.w3.org/TR/2001/PR-SVG-20010719/DTD/svg10.dtd">
<svg width="22cm" height="21cm" viewBox="167 54 424 406" xmlns="http://www.w3.org/2000/svg" xmlns:xlink="http://www.w3.org/1999/xlink">
  <g id="Fondo">
    <g>
      <path style="fill: #b7b79d; fill-opacity: 1; stroke: none" fill-rule="evenodd" d="M 229.897 163.883 L 296.799,163.883 L 296.799,176.247 L 229.897,176.247 L 229.897,163.883z"/>
      <path style="fill: none; stroke-opacity: 1; stroke-width: 0.02; stroke: #494936" d="M 229.897 163.883 L 296.799,163.883 L 296.799,176.247 L 229.897,176.247 L 229.897,163.883"/>
      <path style="fill: #c9c9b6; fill-opacity: 1; stroke: none" fill-rule="evenodd" d="M 229.897 163.883 L 236.991,157.158 L 303.893,157.158 L 296.799,163.883 L 229.897,163.883z"/>
      <path style="fill: none; stroke-opacity: 1; stroke-width: 0.02; stroke: #494936" d="M 229.897 163.883 L 236.991,157.158 L 303.893,157.158 L 296.799,163.883 L 229.897,163.883"/>
      <path style="fill: none; stroke-opacity: 1; stroke-width: 2.12; stroke: #000000" d="M 293.057 169.511 L 277.003,169.511"/>
      <path style="fill: #7a7a5a; fill-opacity: 1; stroke: none" fill-rule="evenodd" d="M 296.799 176.247 L 303.893,169.132 L 303.893,157.158 L 296.799,163.883 L 296.799,176.247z"/>
      <path style="fill: none; stroke-opacity: 1; stroke-width: 0.02; stroke: #494936" d="M 296.799 176.247 L 303.893,169.132 L 303.893,157.158 L 296.799,163.883 L 296.799,176.247"/>
      <path style="fill: #c9c9b6; fill-opacity: 1; stroke: none" fill-rule="evenodd" d="M 230.276 184.089 L 237.739,174.74 L 289.326,174.74 L 281.863,184.089 L 230.276,184.089z"/>
      <path style="fill: none; stroke-opacity: 1; stroke-width: 0.02; stroke: #494936" d="M 230.276 184.089 L 237.739,174.74 L 289.326,174.74 L 281.863,184.089 L 230.276,184.089"/>
      <path style="fill: #7a7a5a; fill-opacity: 1; stroke: none" fill-rule="evenodd" d="M 281.863 185.955 L 289.326,178.113 L 289.326,174.74 L 281.863,184.089 L 281.863,185.955z"/>
      <path style="fill: none; stroke-opacity: 1; stroke-width: 0.02; stroke: #494936" d="M 281.863 185.955 L 289.326,178.113 L 289.326,174.74 L 281.863,184.089 L 281.863,185.955"/>
      <path style="fill: #b7b79d; fill-opacity: 1; stroke: none" fill-rule="evenodd" d="M 230.276 184.089 L 281.863,184.089 L 281.863,185.955 L 230.276,185.955 L 230.276,184.089z"/>
      <path style="fill: none; stroke-opacity: 1; stroke-width: 0.02; stroke: #494936" d="M 230.276 184.089 L 281.863,184.089 L 281.863,185.955 L 230.276,185.955 L 230.276,184.089"/>
      <path style="fill: #000000; fill-opacity: 1; stroke: none" fill-rule="evenodd" d="M 239.984 162.396 L 245.602,157.158 L 293.057,157.158 L 287.839,162.396 L 239.984,162.396z"/>
      <path style="fill: none; stroke-opacity: 1; stroke-width: 0.02; stroke: #000000" d="M 239.984 162.396 L 245.602,157.158 L 293.057,157.158 L 287.839,162.396 L 239.984,162.396"/>
      <path style="fill: #c9c9b6; fill-opacity: 1; stroke: none" fill-rule="evenodd" d="M 239.605 123.859 L 244.854,119 L 292.33,119 L 287.08,123.859 L 239.605,123.859z"/>
      <path style="fill: none; stroke-opacity: 1; stroke-width: 0.02; stroke: #494936" d="M 239.605 123.859 L 244.854,119 L 292.33,119 L 287.08,123.859 L 239.605,123.859"/>
      <path style="fill: #b7b79d; fill-opacity: 1; stroke: none" fill-rule="evenodd" d="M 239.605 123.859 L 287.46,123.859 L 287.46,161.637 L 239.605,161.637 L 239.605,123.859z"/>
      <path style="fill: none; stroke-opacity: 1; stroke-width: 0.02; stroke: #494936" d="M 239.605 123.859 L 287.439,123.859 L 287.439,161.627 L 239.605,161.627 L 239.605,123.859"/>
      <path style="fill: #ffffff; fill-opacity: 1; stroke: none" fill-rule="evenodd" d="M 243.716 128.708 L 283.338,128.708 L 283.338,157.895 L 243.716,157.895 L 243.716,128.708z"/>
      <path style="fill: none; stroke-opacity: 1; stroke-width: 0.02; stroke: #494936" d="M 243.716 128.708 L 283.338,128.708 L 283.338,157.885 L 243.716,157.885 L 243.716,128.708"/>
      <path style="fill: #7a7a5a; fill-opacity: 1; stroke: none" fill-rule="evenodd" d="M 287.08 161.279 L 292.33,156.04 L 292.33,119 L 287.08,123.859 L 287.08,161.279z"/>
      <path style="fill: none; stroke-opacity: 1; stroke-width: 0.02; stroke: #494936" d="M 287.08 161.279 L 292.33,156.04 L 292.33,119 L 287.08,123.859 L 287.08,161.279"/>
    </g>
    <g>
      <path style="fill: #b7b79d; fill-opacity: 1; stroke: none" fill-rule="evenodd" d="M 229.75 298.628 L 296.652,298.628 L 296.652,310.993 L 229.75,310.993 L 229.75,298.628z"/>
      <path style="fill: none; stroke-opacity: 1; stroke-width: 0.02; stroke: #494936" d="M 229.75 298.628 L 296.652,298.628 L 296.652,310.993 L 229.75,310.993 L 229.75,298.628"/>
      <path style="fill: #c9c9b6; fill-opacity: 1; stroke: none" fill-rule="evenodd" d="M 229.75 298.628 L 236.844,291.903 L 303.746,291.903 L 296.652,298.628 L 229.75,298.628z"/>
      <path style="fill: none; stroke-opacity: 1; stroke-width: 0.02; stroke: #494936" d="M 229.75 298.628 L 236.844,291.903 L 303.746,291.903 L 296.652,298.628 L 229.75,298.628"/>
      <path style="fill: none; stroke-opacity: 1; stroke-width: 2.12; stroke: #000000" d="M 292.91 304.257 L 276.857,304.257"/>
      <path style="fill: #7a7a5a; fill-opacity: 1; stroke: none" fill-rule="evenodd" d="M 296.652 310.993 L 303.746,303.878 L 303.746,291.903 L 296.652,298.628 L 296.652,310.993z"/>
      <path style="fill: none; stroke-opacity: 1; stroke-width: 0.02; stroke: #494936" d="M 296.652 310.993 L 303.746,303.878 L 303.746,291.903 L 296.652,298.628 L 296.652,310.993"/>
      <path style="fill: #c9c9b6; fill-opacity: 1; stroke: none" fill-rule="evenodd" d="M 230.13 318.835 L 237.593,309.485 L 289.179,309.485 L 281.716,318.835 L 230.13,318.835z"/>
      <path style="fill: none; stroke-opacity: 1; stroke-width: 0.02; stroke: #494936" d="M 230.13 318.835 L 237.593,309.485 L 289.179,309.485 L 281.716,318.835 L 230.13,318.835"/>
      <path style="fill: #7a7a5a; fill-opacity: 1; stroke: none" fill-rule="evenodd" d="M 281.716 320.701 L 289.179,312.858 L 289.179,309.485 L 281.716,318.835 L 281.716,320.701z"/>
      <path style="fill: none; stroke-opacity: 1; stroke-width: 0.02; stroke: #494936" d="M 281.716 320.701 L 289.179,312.858 L 289.179,309.485 L 281.716,318.835 L 281.716,320.701"/>
      <path style="fill: #b7b79d; fill-opacity: 1; stroke: none" fill-rule="evenodd" d="M 230.13 318.835 L 281.716,318.835 L 281.716,320.701 L 230.13,320.701 L 230.13,318.835z"/>
      <path style="fill: none; stroke-opacity: 1; stroke-width: 0.02; stroke: #494936" d="M 230.13 318.835 L 281.716,318.835 L 281.716,320.701 L 230.13,320.701 L 230.13,318.835"/>
      <path style="fill: #000000; fill-opacity: 1; stroke: none" fill-rule="evenodd" d="M 239.838 297.142 L 245.456,291.903 L 292.91,291.903 L 287.693,297.142 L 239.838,297.142z"/>
      <path style="fill: none; stroke-opacity: 1; stroke-width: 0.02; stroke: #000000" d="M 239.838 297.142 L 245.456,291.903 L 292.91,291.903 L 287.693,297.142 L 239.838,297.142"/>
      <path style="fill: #c9c9b6; fill-opacity: 1; stroke: none" fill-rule="evenodd" d="M 239.458 258.605 L 244.708,253.746 L 292.183,253.746 L 286.934,258.605 L 239.458,258.605z"/>
      <path style="fill: none; stroke-opacity: 1; stroke-width: 0.02; stroke: #494936" d="M 239.458 258.605 L 244.708,253.746 L 292.183,253.746 L 286.934,258.605 L 239.458,258.605"/>
      <path style="fill: #b7b79d; fill-opacity: 1; stroke: none" fill-rule="evenodd" d="M 239.458 258.605 L 287.313,258.605 L 287.313,296.383 L 239.458,296.383 L 239.458,258.605z"/>
      <path style="fill: none; stroke-opacity: 1; stroke-width: 0.02; stroke: #494936" d="M 239.458 258.605 L 287.292,258.605 L 287.292,296.373 L 239.458,296.373 L 239.458,258.605"/>
      <path style="fill: #ffffff; fill-opacity: 1; stroke: none" fill-rule="evenodd" d="M 243.569 263.454 L 283.192,263.454 L 283.192,292.641 L 243.569,292.641 L 243.569,263.454z"/>
      <path style="fill: none; stroke-opacity: 1; stroke-width: 0.02; stroke: #494936" d="M 243.569 263.454 L 283.192,263.454 L 283.192,292.631 L 243.569,292.631 L 243.569,263.454"/>
      <path style="fill: #7a7a5a; fill-opacity: 1; stroke: none" fill-rule="evenodd" d="M 286.934 296.025 L 292.183,290.786 L 292.183,253.746 L 286.934,258.605 L 286.934,296.025z"/>
      <path style="fill: none; stroke-opacity: 1; stroke-width: 0.02; stroke: #494936" d="M 286.934 296.025 L 292.183,290.786 L 292.183,253.746 L 286.934,258.605 L 286.934,296.025"/>
    </g>
    <g>
      <path style="fill: #b7b79d; fill-opacity: 1; stroke: none" fill-rule="evenodd" d="M 229.75 437.628 L 296.652,437.628 L 296.652,449.993 L 229.75,449.993 L 229.75,437.628z"/>
      <path style="fill: none; stroke-opacity: 1; stroke-width: 0.02; stroke: #494936" d="M 229.75 437.628 L 296.652,437.628 L 296.652,449.993 L 229.75,449.993 L 229.75,437.628"/>
      <path style="fill: #c9c9b6; fill-opacity: 1; stroke: none" fill-rule="evenodd" d="M 229.75 437.628 L 236.844,430.903 L 303.746,430.903 L 296.652,437.628 L 229.75,437.628z"/>
      <path style="fill: none; stroke-opacity: 1; stroke-width: 0.02; stroke: #494936" d="M 229.75 437.628 L 236.844,430.903 L 303.746,430.903 L 296.652,437.628 L 229.75,437.628"/>
      <path style="fill: none; stroke-opacity: 1; stroke-width: 2.12; stroke: #000000" d="M 292.91 443.257 L 276.857,443.257"/>
      <path style="fill: #7a7a5a; fill-opacity: 1; stroke: none" fill-rule="evenodd" d="M 296.652 449.993 L 303.746,442.878 L 303.746,430.903 L 296.652,437.628 L 296.652,449.993z"/>
      <path style="fill: none; stroke-opacity: 1; stroke-width: 0.02; stroke: #494936" d="M 296.652 449.993 L 303.746,442.878 L 303.746,430.903 L 296.652,437.628 L 296.652,449.993"/>
      <path style="fill: #c9c9b6; fill-opacity: 1; stroke: none" fill-rule="evenodd" d="M 230.13 457.835 L 237.593,448.485 L 289.179,448.485 L 281.716,457.835 L 230.13,457.835z"/>
      <path style="fill: none; stroke-opacity: 1; stroke-width: 0.02; stroke: #494936" d="M 230.13 457.835 L 237.593,448.485 L 289.179,448.485 L 281.716,457.835 L 230.13,457.835"/>
      <path style="fill: #7a7a5a; fill-opacity: 1; stroke: none" fill-rule="evenodd" d="M 281.716 459.701 L 289.179,451.858 L 289.179,448.485 L 281.716,457.835 L 281.716,459.701z"/>
      <path style="fill: none; stroke-opacity: 1; stroke-width: 0.02; stroke: #494936" d="M 281.716 459.701 L 289.179,451.858 L 289.179,448.485 L 281.716,457.835 L 281.716,459.701"/>
      <path style="fill: #b7b79d; fill-opacity: 1; stroke: none" fill-rule="evenodd" d="M 230.13 457.835 L 281.716,457.835 L 281.716,459.701 L 230.13,459.701 L 230.13,457.835z"/>
      <path style="fill: none; stroke-opacity: 1; stroke-width: 0.02; stroke: #494936" d="M 230.13 457.835 L 281.716,457.835 L 281.716,459.701 L 230.13,459.701 L 230.13,457.835"/>
      <path style="fill: #000000; fill-opacity: 1; stroke: none" fill-rule="evenodd" d="M 239.838 436.142 L 245.456,430.903 L 292.91,430.903 L 287.693,436.142 L 239.838,436.142z"/>
      <path style="fill: none; stroke-opacity: 1; stroke-width: 0.02; stroke: #000000" d="M 239.838 436.142 L 245.456,430.903 L 292.91,430.903 L 287.693,436.142 L 239.838,436.142"/>
      <path style="fill: #c9c9b6; fill-opacity: 1; stroke: none" fill-rule="evenodd" d="M 239.458 397.605 L 244.708,392.746 L 292.183,392.746 L 286.934,397.605 L 239.458,397.605z"/>
      <path style="fill: none; stroke-opacity: 1; stroke-width: 0.02; stroke: #494936" d="M 239.458 397.605 L 244.708,392.746 L 292.183,392.746 L 286.934,397.605 L 239.458,397.605"/>
      <path style="fill: #b7b79d; fill-opacity: 1; stroke: none" fill-rule="evenodd" d="M 239.458 397.605 L 287.313,397.605 L 287.313,435.383 L 239.458,435.383 L 239.458,397.605z"/>
      <path style="fill: none; stroke-opacity: 1; stroke-width: 0.02; stroke: #494936" d="M 239.458 397.605 L 287.292,397.605 L 287.292,435.373 L 239.458,435.373 L 239.458,397.605"/>
      <path style="fill: #ffffff; fill-opacity: 1; stroke: none" fill-rule="evenodd" d="M 243.569 402.454 L 283.192,402.454 L 283.192,431.641 L 243.569,431.641 L 243.569,402.454z"/>
      <path style="fill: none; stroke-opacity: 1; stroke-width: 0.02; stroke: #494936" d="M 243.569 402.454 L 283.192,402.454 L 283.192,431.631 L 243.569,431.631 L 243.569,402.454"/>
      <path style="fill: #7a7a5a; fill-opacity: 1; stroke: none" fill-rule="evenodd" d="M 286.934 435.025 L 292.183,429.786 L 292.183,392.746 L 286.934,397.605 L 286.934,435.025z"/>
      <path style="fill: none; stroke-opacity: 1; stroke-width: 0.02; stroke: #494936" d="M 286.934 435.025 L 292.183,429.786 L 292.183,392.746 L 286.934,397.605 L 286.934,435.025"/>
    </g>
    <g>
      <path style="fill: #b7b79d; fill-opacity: 1; stroke: none" fill-rule="evenodd" d="M 516.897 162.628 L 583.799,162.628 L 583.799,174.993 L 516.897,174.993 L 516.897,162.628z"/>
      <path style="fill: none; stroke-opacity: 1; stroke-width: 0.02; stroke: #494936" d="M 516.897 162.628 L 583.799,162.628 L 583.799,174.993 L 516.897,174.993 L 516.897,162.628"/>
      <path style="fill: #c9c9b6; fill-opacity: 1; stroke: none" fill-rule="evenodd" d="M 516.897 162.628 L 523.991,155.903 L 590.893,155.903 L 583.799,162.628 L 516.897,162.628z"/>
      <path style="fill: none; stroke-opacity: 1; stroke-width: 0.02; stroke: #494936" d="M 516.897 162.628 L 523.991,155.903 L 590.893,155.903 L 583.799,162.628 L 516.897,162.628"/>
      <path style="fill: none; stroke-opacity: 1; stroke-width: 2.12; stroke: #000000" d="M 580.057 168.257 L 564.003,168.257"/>
      <path style="fill: #7a7a5a; fill-opacity: 1; stroke: none" fill-rule="evenodd" d="M 583.799 174.993 L 590.893,167.878 L 590.893,155.903 L 583.799,162.628 L 583.799,174.993z"/>
      <path style="fill: none; stroke-opacity: 1; stroke-width: 0.02; stroke: #494936" d="M 583.799 174.993 L 590.893,167.878 L 590.893,155.903 L 583.799,162.628 L 583.799,174.993"/>
      <path style="fill: #c9c9b6; fill-opacity: 1; stroke: none" fill-rule="evenodd" d="M 517.276 182.835 L 524.739,173.485 L 576.326,173.485 L 568.863,182.835 L 517.276,182.835z"/>
      <path style="fill: none; stroke-opacity: 1; stroke-width: 0.02; stroke: #494936" d="M 517.276 182.835 L 524.739,173.485 L 576.326,173.485 L 568.863,182.835 L 517.276,182.835"/>
      <path style="fill: #7a7a5a; fill-opacity: 1; stroke: none" fill-rule="evenodd" d="M 568.863 184.701 L 576.326,176.858 L 576.326,173.485 L 568.863,182.835 L 568.863,184.701z"/>
      <path style="fill: none; stroke-opacity: 1; stroke-width: 0.02; stroke: #494936" d="M 568.863 184.701 L 576.326,176.858 L 576.326,173.485 L 568.863,182.835 L 568.863,184.701"/>
      <path style="fill: #b7b79d; fill-opacity: 1; stroke: none" fill-rule="evenodd" d="M 517.276 182.835 L 568.863,182.835 L 568.863,184.701 L 517.276,184.701 L 517.276,182.835z"/>
      <path style="fill: none; stroke-opacity: 1; stroke-width: 0.02; stroke: #494936" d="M 517.276 182.835 L 568.863,182.835 L 568.863,184.701 L 517.276,184.701 L 517.276,182.835"/>
      <path style="fill: #000000; fill-opacity: 1; stroke: none" fill-rule="evenodd" d="M 526.984 161.142 L 532.602,155.903 L 580.057,155.903 L 574.839,161.142 L 526.984,161.142z"/>
      <path style="fill: none; stroke-opacity: 1; stroke-width: 0.02; stroke: #000000" d="M 526.984 161.142 L 532.602,155.903 L 580.057,155.903 L 574.839,161.142 L 526.984,161.142"/>
      <path style="fill: #c9c9b6; fill-opacity: 1; stroke: none" fill-rule="evenodd" d="M 526.605 122.605 L 531.854,117.746 L 579.33,117.746 L 574.08,122.605 L 526.605,122.605z"/>
      <path style="fill: none; stroke-opacity: 1; stroke-width: 0.02; stroke: #494936" d="M 526.605 122.605 L 531.854,117.746 L 579.33,117.746 L 574.08,122.605 L 526.605,122.605"/>
      <path style="fill: #b7b79d; fill-opacity: 1; stroke: none" fill-rule="evenodd" d="M 526.605 122.605 L 574.46,122.605 L 574.46,160.383 L 526.605,160.383 L 526.605,122.605z"/>
      <path style="fill: none; stroke-opacity: 1; stroke-width: 0.02; stroke: #494936" d="M 526.605 122.605 L 574.439,122.605 L 574.439,160.373 L 526.605,160.373 L 526.605,122.605"/>
      <path style="fill: #ffffff; fill-opacity: 1; stroke: none" fill-rule="evenodd" d="M 530.716 127.454 L 570.338,127.454 L 570.338,156.641 L 530.716,156.641 L 530.716,127.454z"/>
      <path style="fill: none; stroke-opacity: 1; stroke-width: 0.02; stroke: #494936" d="M 530.716 127.454 L 570.338,127.454 L 570.338,156.631 L 530.716,156.631 L 530.716,127.454"/>
      <path style="fill: #7a7a5a; fill-opacity: 1; stroke: none" fill-rule="evenodd" d="M 574.08 160.025 L 579.33,154.786 L 579.33,117.746 L 574.08,122.605 L 574.08,160.025z"/>
      <path style="fill: none; stroke-opacity: 1; stroke-width: 0.02; stroke: #494936" d="M 574.08 160.025 L 579.33,154.786 L 579.33,117.746 L 574.08,122.605 L 574.08,160.025"/>
    </g>
    <g>
      <path style="fill: #b7b79d; fill-opacity: 1; stroke: none" fill-rule="evenodd" d="M 516.75 297.374 L 583.652,297.374 L 583.652,309.738 L 516.75,309.738 L 516.75,297.374z"/>
      <path style="fill: none; stroke-opacity: 1; stroke-width: 0.02; stroke: #494936" d="M 516.75 297.374 L 583.652,297.374 L 583.652,309.738 L 516.75,309.738 L 516.75,297.374"/>
      <path style="fill: #c9c9b6; fill-opacity: 1; stroke: none" fill-rule="evenodd" d="M 516.75 297.374 L 523.844,290.649 L 590.746,290.649 L 583.652,297.374 L 516.75,297.374z"/>
      <path style="fill: none; stroke-opacity: 1; stroke-width: 0.02; stroke: #494936" d="M 516.75 297.374 L 523.844,290.649 L 590.746,290.649 L 583.652,297.374 L 516.75,297.374"/>
      <path style="fill: none; stroke-opacity: 1; stroke-width: 2.12; stroke: #000000" d="M 579.91 303.003 L 563.857,303.003"/>
      <path style="fill: #7a7a5a; fill-opacity: 1; stroke: none" fill-rule="evenodd" d="M 583.652 309.738 L 590.746,302.623 L 590.746,290.649 L 583.652,297.374 L 583.652,309.738z"/>
      <path style="fill: none; stroke-opacity: 1; stroke-width: 0.02; stroke: #494936" d="M 583.652 309.738 L 590.746,302.623 L 590.746,290.649 L 583.652,297.374 L 583.652,309.738"/>
      <path style="fill: #c9c9b6; fill-opacity: 1; stroke: none" fill-rule="evenodd" d="M 517.13 317.581 L 524.593,308.231 L 576.179,308.231 L 568.716,317.581 L 517.13,317.581z"/>
      <path style="fill: none; stroke-opacity: 1; stroke-width: 0.02; stroke: #494936" d="M 517.13 317.581 L 524.593,308.231 L 576.179,308.231 L 568.716,317.581 L 517.13,317.581"/>
      <path style="fill: #7a7a5a; fill-opacity: 1; stroke: none" fill-rule="evenodd" d="M 568.716 319.447 L 576.179,311.604 L 576.179,308.231 L 568.716,317.581 L 568.716,319.447z"/>
      <path style="fill: none; stroke-opacity: 1; stroke-width: 0.02; stroke: #494936" d="M 568.716 319.447 L 576.179,311.604 L 576.179,308.231 L 568.716,317.581 L 568.716,319.447"/>
      <path style="fill: #b7b79d; fill-opacity: 1; stroke: none" fill-rule="evenodd" d="M 517.13 317.581 L 568.716,317.581 L 568.716,319.447 L 517.13,319.447 L 517.13,317.581z"/>
      <path style="fill: none; stroke-opacity: 1; stroke-width: 0.02; stroke: #494936" d="M 517.13 317.581 L 568.716,317.581 L 568.716,319.447 L 517.13,319.447 L 517.13,317.581"/>
      <path style="fill: #000000; fill-opacity: 1; stroke: none" fill-rule="evenodd" d="M 526.838 295.888 L 532.456,290.649 L 579.91,290.649 L 574.693,295.888 L 526.838,295.888z"/>
      <path style="fill: none; stroke-opacity: 1; stroke-width: 0.02; stroke: #000000" d="M 526.838 295.888 L 532.456,290.649 L 579.91,290.649 L 574.693,295.888 L 526.838,295.888"/>
      <path style="fill: #c9c9b6; fill-opacity: 1; stroke: none" fill-rule="evenodd" d="M 526.458 257.351 L 531.708,252.492 L 579.183,252.492 L 573.934,257.351 L 526.458,257.351z"/>
      <path style="fill: none; stroke-opacity: 1; stroke-width: 0.02; stroke: #494936" d="M 526.458 257.351 L 531.708,252.492 L 579.183,252.492 L 573.934,257.351 L 526.458,257.351"/>
      <path style="fill: #b7b79d; fill-opacity: 1; stroke: none" fill-rule="evenodd" d="M 526.458 257.351 L 574.313,257.351 L 574.313,295.129 L 526.458,295.129 L 526.458,257.351z"/>
      <path style="fill: none; stroke-opacity: 1; stroke-width: 0.02; stroke: #494936" d="M 526.458 257.351 L 574.292,257.351 L 574.292,295.118 L 526.458,295.118 L 526.458,257.351"/>
      <path style="fill: #ffffff; fill-opacity: 1; stroke: none" fill-rule="evenodd" d="M 530.569 262.2 L 570.192,262.2 L 570.192,291.387 L 530.569,291.387 L 530.569,262.2z"/>
      <path style="fill: none; stroke-opacity: 1; stroke-width: 0.02; stroke: #494936" d="M 530.569 262.2 L 570.192,262.2 L 570.192,291.376 L 530.569,291.376 L 530.569,262.2"/>
      <path style="fill: #7a7a5a; fill-opacity: 1; stroke: none" fill-rule="evenodd" d="M 573.934 294.771 L 579.183,289.532 L 579.183,252.492 L 573.934,257.351 L 573.934,294.771z"/>
      <path style="fill: none; stroke-opacity: 1; stroke-width: 0.02; stroke: #494936" d="M 573.934 294.771 L 579.183,289.532 L 579.183,252.492 L 573.934,257.351 L 573.934,294.771"/>
    </g>
    <g>
      <path style="fill: #b7b79d; fill-opacity: 1; stroke: none" fill-rule="evenodd" d="M 516.75 436.374 L 583.652,436.374 L 583.652,448.738 L 516.75,448.738 L 516.75,436.374z"/>
      <path style="fill: none; stroke-opacity: 1; stroke-width: 0.02; stroke: #494936" d="M 516.75 436.374 L 583.652,436.374 L 583.652,448.738 L 516.75,448.738 L 516.75,436.374"/>
      <path style="fill: #c9c9b6; fill-opacity: 1; stroke: none" fill-rule="evenodd" d="M 516.75 436.374 L 523.844,429.649 L 590.746,429.649 L 583.652,436.374 L 516.75,436.374z"/>
      <path style="fill: none; stroke-opacity: 1; stroke-width: 0.02; stroke: #494936" d="M 516.75 436.374 L 523.844,429.649 L 590.746,429.649 L 583.652,436.374 L 516.75,436.374"/>
      <path style="fill: none; stroke-opacity: 1; stroke-width: 2.12; stroke: #000000" d="M 579.91 442.003 L 563.857,442.003"/>
      <path style="fill: #7a7a5a; fill-opacity: 1; stroke: none" fill-rule="evenodd" d="M 583.652 448.738 L 590.746,441.623 L 590.746,429.649 L 583.652,436.374 L 583.652,448.738z"/>
      <path style="fill: none; stroke-opacity: 1; stroke-width: 0.02; stroke: #494936" d="M 583.652 448.738 L 590.746,441.623 L 590.746,429.649 L 583.652,436.374 L 583.652,448.738"/>
      <path style="fill: #c9c9b6; fill-opacity: 1; stroke: none" fill-rule="evenodd" d="M 517.13 456.581 L 524.593,447.231 L 576.179,447.231 L 568.716,456.581 L 517.13,456.581z"/>
      <path style="fill: none; stroke-opacity: 1; stroke-width: 0.02; stroke: #494936" d="M 517.13 456.581 L 524.593,447.231 L 576.179,447.231 L 568.716,456.581 L 517.13,456.581"/>
      <path style="fill: #7a7a5a; fill-opacity: 1; stroke: none" fill-rule="evenodd" d="M 568.716 458.447 L 576.179,450.604 L 576.179,447.231 L 568.716,456.581 L 568.716,458.447z"/>
      <path style="fill: none; stroke-opacity: 1; stroke-width: 0.02; stroke: #494936" d="M 568.716 458.447 L 576.179,450.604 L 576.179,447.231 L 568.716,456.581 L 568.716,458.447"/>
      <path style="fill: #b7b79d; fill-opacity: 1; stroke: none" fill-rule="evenodd" d="M 517.13 456.581 L 568.716,456.581 L 568.716,458.447 L 517.13,458.447 L 517.13,456.581z"/>
      <path style="fill: none; stroke-opacity: 1; stroke-width: 0.02; stroke: #494936" d="M 517.13 456.581 L 568.716,456.581 L 568.716,458.447 L 517.13,458.447 L 517.13,456.581"/>
      <path style="fill: #000000; fill-opacity: 1; stroke: none" fill-rule="evenodd" d="M 526.838 434.888 L 532.456,429.649 L 579.91,429.649 L 574.693,434.888 L 526.838,434.888z"/>
      <path style="fill: none; stroke-opacity: 1; stroke-width: 0.02; stroke: #000000" d="M 526.838 434.888 L 532.456,429.649 L 579.91,429.649 L 574.693,434.888 L 526.838,434.888"/>
      <path style="fill: #c9c9b6; fill-opacity: 1; stroke: none" fill-rule="evenodd" d="M 526.458 396.351 L 531.708,391.492 L 579.183,391.492 L 573.934,396.351 L 526.458,396.351z"/>
      <path style="fill: none; stroke-opacity: 1; stroke-width: 0.02; stroke: #494936" d="M 526.458 396.351 L 531.708,391.492 L 579.183,391.492 L 573.934,396.351 L 526.458,396.351"/>
      <path style="fill: #b7b79d; fill-opacity: 1; stroke: none" fill-rule="evenodd" d="M 526.458 396.351 L 574.313,396.351 L 574.313,434.129 L 526.458,434.129 L 526.458,396.351z"/>
      <path style="fill: none; stroke-opacity: 1; stroke-width: 0.02; stroke: #494936" d="M 526.458 396.351 L 574.292,396.351 L 574.292,434.118 L 526.458,434.118 L 526.458,396.351"/>
      <path style="fill: #ffffff; fill-opacity: 1; stroke: none" fill-rule="evenodd" d="M 530.569 401.2 L 570.192,401.2 L 570.192,430.387 L 530.569,430.387 L 530.569,401.2z"/>
      <path style="fill: none; stroke-opacity: 1; stroke-width: 0.02; stroke: #494936" d="M 530.569 401.2 L 570.192,401.2 L 570.192,430.376 L 530.569,430.376 L 530.569,401.2"/>
      <path style="fill: #7a7a5a; fill-opacity: 1; stroke: none" fill-rule="evenodd" d="M 573.934 433.771 L 579.183,428.532 L 579.183,391.492 L 573.934,396.351 L 573.934,433.771z"/>
      <path style="fill: none; stroke-opacity: 1; stroke-width: 0.02; stroke: #494936" d="M 573.934 433.771 L 579.183,428.532 L 579.183,391.492 L 573.934,396.351 L 573.934,433.771"/>
    </g>
    <g>
      <line style="fill: none; stroke-opacity: 1; stroke-width: 2; stroke: #0000ff" x1="308" y1="124" x2="500.264" y2="124.952"/>
      <polygon style="fill: #0000ff; fill-opacity: 1; stroke-opacity: 1; stroke-width: 2; stroke: #0000ff" fill-rule="evenodd" points="507.764,124.989 497.739,129.939 500.264,124.952 497.789,119.939 "/>
    </g>
    <text font-size="12.8" style="fill: #000000; fill-opacity: 1; stroke: none;text-anchor:middle;font-family:sans-serif;font-style:normal;font-weight:700" x="262" y="66">
      <tspan x="262" y="66">PC Ejecutando</tspan>
      <tspan x="262" y="82">NMAP</tspan>
    </text>
    <text font-size="12.8" style="fill: #000000; fill-opacity: 1; stroke: none;text-anchor:middle;font-family:sans-serif;font-style:normal;font-weight:700" x="554.5" y="66.5813">
      <tspan x="554.5" y="66.5813">PC </tspan>
      <tspan x="554.5" y="82.5813">Objetivo</tspan>
    </text>
    <text font-size="12.8" style="fill: #00ff00; fill-opacity: 1; stroke: none;text-anchor:start;font-family:sans-serif;font-style:normal;font-weight:700" x="188" y="149">
      <tspan x="188" y="149">OPEN</tspan>
    </text>
    <g>
      <line style="fill: none; stroke-opacity: 1; stroke-width: 2; stroke: #0000ff" x1="318.441" y1="145.056" x2="510.705" y2="146.008"/>
      <polygon style="fill: #0000ff; fill-opacity: 1; stroke-opacity: 1; stroke-width: 2; stroke: #0000ff" fill-rule="evenodd" points="310.941,145.019 320.966,140.068 318.441,145.056 320.916,150.068 "/>
    </g>
    <g>
      <line style="fill: none; stroke-opacity: 1; stroke-width: 2; stroke: #800080" x1="308.705" y1="166.008" x2="500.969" y2="166.959"/>
      <polygon style="fill: #800080; fill-opacity: 1; stroke-opacity: 1; stroke-width: 2; stroke: #800080" fill-rule="evenodd" points="508.469,166.997 498.444,171.947 500.969,166.959 498.494,161.947 "/>
    </g>
    <text font-size="12.7998" style="fill: #000000; fill-opacity: 1; stroke: none;text-anchor:start;font-family:sans-serif;font-style:normal;font-weight:normal" x="396" y="121">
      <tspan x="396" y="121">SYN</tspan>
    </text>
    <text font-size="12.7998" style="fill: #000000; fill-opacity: 1; stroke: none;text-anchor:start;font-family:sans-serif;font-style:normal;font-weight:normal" x="395.7" y="142.581">
      <tspan x="395.7" y="142.581">SYN</tspan>
    </text>
    <text font-size="12.7998" style="fill: #000000; fill-opacity: 1; stroke: none;text-anchor:start;font-family:sans-serif;font-style:normal;font-weight:normal" x="389.7" y="163.581">
      <tspan x="389.7" y="163.581">RESET</tspan>
    </text>
    <g>
      <line style="fill: none; stroke-opacity: 1; stroke-width: 2; stroke: #0000ff" x1="307.705" y1="269.581" x2="499.969" y2="270.533"/>
      <polygon style="fill: #0000ff; fill-opacity: 1; stroke-opacity: 1; stroke-width: 2; stroke: #0000ff" fill-rule="evenodd" points="507.469,270.57 497.444,275.52 499.969,270.533 497.494,265.521 "/>
    </g>
    <g>
      <line style="fill: none; stroke-opacity: 1; stroke-width: 2; stroke: #800080" x1="318.146" y1="293.637" x2="510.41" y2="294.589"/>
      <polygon style="fill: #800080; fill-opacity: 1; stroke-opacity: 1; stroke-width: 2; stroke: #800080" fill-rule="evenodd" points="310.646,293.6 320.671,288.649 318.146,293.637 320.621,298.649 "/>
    </g>
    <text font-size="12.7998" style="fill: #000000; fill-opacity: 1; stroke: none;text-anchor:start;font-family:sans-serif;font-style:normal;font-weight:normal" x="396.705" y="266.581">
      <tspan x="396.705" y="266.581">SYN</tspan>
    </text>
    <text font-size="12.7998" style="fill: #000000; fill-opacity: 1; stroke: none;text-anchor:start;font-family:sans-serif;font-style:normal;font-weight:normal" x="390.405" y="290.162">
      <tspan x="390.405" y="290.162">RESET</tspan>
    </text>
    <g>
      <line style="fill: none; stroke-opacity: 1; stroke-width: 2; stroke: #0000ff" x1="307.705" y1="419.581" x2="499.969" y2="420.533"/>
      <polygon style="fill: #0000ff; fill-opacity: 1; stroke-opacity: 1; stroke-width: 2; stroke: #0000ff" fill-rule="evenodd" points="507.469,420.57 497.444,425.52 499.969,420.533 497.494,415.521 "/>
    </g>
    <text font-size="12.7998" style="fill: #000000; fill-opacity: 1; stroke: none;text-anchor:start;font-family:sans-serif;font-style:normal;font-weight:normal" x="395.705" y="415.581">
      <tspan x="395.705" y="415.581">SYN</tspan>
    </text>
    <text font-size="12.8" style="fill: #ff0000; fill-opacity: 1; stroke: none;text-anchor:start;font-family:sans-serif;font-style:normal;font-weight:700" x="174.7" y="281.581">
      <tspan x="174.7" y="281.581">CLOSED</tspan>
    </text>
    <text font-size="12.8" style="fill: #ffa500; fill-opacity: 1; stroke: none;text-anchor:start;font-family:sans-serif;font-style:normal;font-weight:700" x="167.7" y="418.581">
      <tspan x="167.7" y="418.581">FILTERED</tspan>
    </text>
    <text font-size="12.7998" style="fill: #4d4d4d; fill-opacity: 1; stroke: none;text-anchor:start;font-family:sans-serif;font-style:normal;font-weight:normal" x="366" y="374">
      <tspan x="366" y="374">pablo.profe.tic@gmail.com</tspan>
    </text>
    <text font-size="12.8" style="fill: #4d4d4d; fill-opacity: 1; stroke: none;text-anchor:start;font-family:sans-serif;font-style:normal;font-weight:700" x="365.7" y="357.581">
      <tspan x="365.7" y="357.581">Pablo Esteban</tspan>
    </text>
  </g>
</svg>
